<?xml version="1.0" standalone="no"?>
<!DOCTYPE svg PUBLIC "-//W3C//DTD SVG 20010904//EN"
 "http://www.w3.org/TR/2001/REC-SVG-20010904/DTD/svg10.dtd">
<svg version="1.0" xmlns="http://www.w3.org/2000/svg"
 width="32.000000pt" height="32.000000pt" viewBox="0 0 32.000000 32.000000"
 preserveAspectRatio="xMidYMid meet">

<g transform="translate(0.000000,32.000000) scale(0.100000,-0.100000)"
fill="#000000" stroke="none">
<path d="M16 304 c-23 -23 -23 -265 0 -288 23 -23 265 -23 288 0 23 23 23 265
0 288 -23 23 -265 23 -288 0z m244 -105 c0 -81 0 -81 -39 -120 -22 -22 -48
-39 -61 -39 -13 0 -39 17 -61 39 -39 39 -39 39 -39 120 l0 81 100 0 100 0 0
-81z"/>
<path d="M160 160 c0 -87 1 -90 19 -80 36 19 51 52 51 112 l0 58 -35 0 -35 0
0 -90z"/>
</g>
</svg>
