<?xml version="1.0" standalone="no"?>
<!DOCTYPE svg PUBLIC "-//W3C//DTD SVG 20010904//EN"
 "http://www.w3.org/TR/2001/REC-SVG-20010904/DTD/svg10.dtd">
<svg version="1.0" xmlns="http://www.w3.org/2000/svg"
 width="568.000000pt" height="86.000000pt" viewBox="0 0 568.000000 86.000000"
 preserveAspectRatio="xMidYMid meet">

<g transform="translate(0.000000,86.000000) scale(0.100000,-0.100000)"
fill="#000000" stroke="none">
<path d="M1695 848 c-47 -25 -60 -82 -29 -126 54 -78 175 -23 157 71 -10 53
-78 83 -128 55z"/>
<path d="M0 582 c0 -267 0 -268 26 -319 42 -85 196 -215 301 -255 27 -10 37
-7 112 38 112 66 194 146 231 227 l30 64 -2 254 -3 254 -347 3 -348 2 0 -268z
m610 -24 c0 -183 -2 -206 -21 -244 -23 -50 -114 -137 -188 -182 l-51 -32 0
330 0 330 130 0 130 0 0 -202z"/>
<path d="M1032 468 l3 -383 53 -3 c51 -3 54 -2 65 27 10 28 37 44 37 23 0 -13
71 -50 111 -57 42 -8 113 9 152 37 15 11 40 43 54 71 23 44 28 68 31 152 5
114 -5 161 -46 226 -37 58 -87 83 -164 83 -45 -1 -66 -7 -98 -28 -22 -14 -40
-31 -40 -36 0 -6 -3 -10 -7 -10 -5 0 -8 62 -8 137 l0 138 -73 3 -72 3 2 -383z
m316 29 c41 -43 53 -126 31 -212 -14 -56 -47 -87 -92 -87 -77 0 -107 46 -107
167 0 115 27 154 106 155 30 0 46 -6 62 -23z"/>
<path d="M4477 844 c-4 -4 -7 -75 -7 -157 l0 -150 -22 28 c-68 86 -231 87
-314 1 -51 -53 -69 -113 -68 -226 1 -124 38 -201 114 -240 83 -41 187 -31 250
26 39 35 50 35 50 -1 0 -28 27 -54 35 -34 3 8 4 181 3 384 -3 325 -5 370 -18
373 -9 1 -19 0 -23 -4z m-125 -268 c81 -14 126 -118 115 -264 -10 -135 -61
-192 -172 -192 -77 0 -120 25 -153 90 -21 40 -23 56 -20 150 3 114 18 154 69
192 28 21 84 38 109 33 8 -2 32 -6 52 -9z"/>
<path d="M2020 692 c-17 -46 -28 -61 -60 -80 -35 -19 -40 -27 -40 -57 0 -33 2
-35 35 -35 l35 0 0 -162 c0 -188 13 -233 72 -264 38 -21 165 -24 211 -5 26 10
28 14 25 63 -3 53 -3 53 -33 48 -60 -9 -98 -4 -111 15 -10 14 -14 57 -14 162
l0 143 75 0 75 0 0 60 0 60 -75 0 -75 0 0 55 0 55 -49 0 -50 0 -21 -58z"/>
<path d="M1672 632 c-9 -7 -12 -69 -10 -278 l3 -269 70 0 70 0 0 275 0 275
-60 3 c-33 1 -66 -2 -73 -6z"/>
<path d="M3277 619 c-51 -12 -77 -27 -77 -44 0 -20 21 -23 57 -9 57 24 134 27
173 7 41 -21 59 -54 67 -121 l5 -49 -93 -7 c-52 -4 -112 -12 -134 -17 -111
-29 -166 -137 -116 -229 28 -52 72 -74 150 -74 72 0 110 15 150 58 31 33 41
33 41 -3 0 -37 22 -57 40 -36 9 11 11 65 8 212 -3 173 -6 203 -23 238 -36 72
-133 101 -248 74z m208 -376 c-13 -71 -85 -123 -170 -123 -80 0 -125 38 -125
105 0 77 60 115 200 124 l95 6 3 -40 c2 -22 1 -54 -3 -72z"/>
<path d="M3854 616 c-17 -8 -44 -30 -60 -50 l-29 -36 -5 42 c-4 35 -9 43 -25
43 -19 0 -20 -7 -20 -260 0 -259 0 -260 22 -263 21 -3 21 -1 25 180 3 173 4
185 28 227 32 57 76 83 143 85 45 1 52 4 52 21 0 17 -7 20 -50 22 -27 2 -64
-4 -81 -11z"/>
<path d="M4802 609 c-87 -44 -132 -133 -132 -265 0 -173 86 -268 245 -269 92
0 165 21 165 47 0 17 -5 19 -32 14 -18 -4 -67 -9 -108 -12 -65 -5 -81 -2 -120
18 -52 27 -87 81 -96 151 l-7 47 194 2 194 3 -3 60 c-1 33 -7 75 -13 93 -15
45 -66 102 -106 118 -49 21 -131 17 -181 -7z m177 -48 c42 -30 64 -68 69 -120
l5 -51 -167 0 c-91 0 -166 4 -166 8 0 5 7 31 15 58 33 112 160 166 244 105z"/>
<path d="M5402 618 c-18 -6 -47 -24 -63 -39 l-29 -27 -8 31 c-5 18 -16 33 -25
35 -16 3 -17 -18 -17 -262 0 -263 4 -296 33 -267 8 8 14 78 17 206 6 214 10
228 78 268 43 25 150 27 187 3 48 -32 55 -67 55 -280 0 -168 2 -195 16 -200 9
-3 20 -4 25 0 5 3 9 96 9 207 0 191 -1 205 -22 247 -34 66 -66 84 -151 87 -40
1 -87 -3 -105 -9z"/>
<path d="M2385 611 c-8 -14 133 -503 151 -521 29 -30 47 3 120 224 40 120 74
219 76 221 2 3 19 -45 37 -106 62 -206 107 -333 124 -343 12 -8 21 -7 32 5 16
16 145 465 145 507 0 27 -36 31 -44 5 -6 -20 -100 -381 -112 -428 l-7 -30 -10
35 c-50 172 -138 427 -151 435 -11 7 -20 5 -30 -5 -16 -16 -125 -330 -146
-419 l-13 -55 -32 125 c-57 225 -88 334 -98 347 -11 14 -33 16 -42 3z"/>
</g>
</svg>
